<svg xmlns="http://www.w3.org/2000/svg" width="234.311" height="43.053" viewBox="0 0 234.311 43.053">
    <g id="logo" transform="translate(-176.529 -385.43)">
        <g id="Group_3932" data-name="Group 3932" transform="translate(330.074 397.595)">
            <g id="Group_3931" data-name="Group 3931">
                <rect id="Rectangle_12171" data-name="Rectangle 12171" width="17.524" height="2.335" transform="translate(42.241 10.151)" fill="#1428a0"/>
                <g id="Group_3928" data-name="Group 3928">
                    <path id="Path_4494" data-name="Path 4494" d="M415.615,402.7V415h3.025v-4.939h2.565v-2.509H418.64V402.7Z" transform="translate(-400.697 -402.695)" fill="#1428a0"/>
                    <path id="Path_4495" data-name="Path 4495" d="M399.75,431.645V421.582h14.2v10.063Zm11.294-2.456v-5.155h-8.4v5.155Z" transform="translate(-396.011 -408.274)" fill="#1428a0"/>
                    <path id="Path_4496" data-name="Path 4496" d="M446.091,402.7V415H443.12v-4.939h-3.852v-2.5h3.8V402.7Z" transform="translate(-407.684 -402.695)" fill="#1428a0"/>
                    <path id="Path_4497" data-name="Path 4497" d="M435.089,431.992c-4.347,0-7.866-2.546-7.866-5.695s3.519-5.692,7.866-5.692,7.875,2.546,7.875,5.692S439.442,431.992,435.089,431.992Zm4.9-5.695c0-1.751-2.2-3.179-4.9-3.179s-4.889,1.428-4.889,3.179,2.188,3.184,4.889,3.184S439.993,428.054,439.993,426.3Z" transform="translate(-404.126 -407.986)" fill="#1428a0"/>
                    <path id="Path_4498" data-name="Path 4498" d="M402.235,403.332s-.391,6.653,4.989,9.407l-1.548,2.147s-3.947-2.613-4.841-5.462c-.895,2.849-4.841,5.462-4.841,5.462l-1.551-2.147c5.394-2.754,5-9.407,5-9.407Z" transform="translate(-394.443 -402.883)" fill="#1428a0"/>
                    <path id="Path_4499" data-name="Path 4499" d="M429.484,409.423c-.9,2.849-4.508,5.236-4.508,5.236l-1.552-2.146c5.056-2.529,4.658-9.182,4.658-9.182h2.79s-.391,6.653,4.668,9.182l-1.548,2.146S430.375,412.272,429.484,409.423Z" transform="translate(-403.004 -402.883)" fill="#1428a0"/>
                </g>
                <g id="Group_3930" data-name="Group 3930" transform="translate(60.261)">
                    <path id="Path_4500" data-name="Path 4500" d="M501.143,402.7v15.16h3.019v-7.8h2.565v-2.509h-2.565V402.7Z" transform="translate(-486.222 -402.695)" fill="#1428a0"/>
                    <path id="Path_4501" data-name="Path 4501" d="M487.759,403.332s-.4,6.653,4.994,9.407l-1.555,2.147s-3.944-2.613-4.84-5.462c-.893,2.849-4.836,5.462-4.836,5.462l-1.555-2.147c5.392-2.754,5-9.407,5-9.407Z" transform="translate(-479.967 -402.883)" fill="#1428a0"/>
                    <rect id="Rectangle_12172" data-name="Rectangle 12172" width="2.902" height="10.072" transform="translate(4.192 13.298)" fill="#1428a0"/>
                    <g id="Group_3929" data-name="Group 3929" transform="translate(5.737 20.877)">
                        <rect id="Rectangle_12173" data-name="Rectangle 12173" width="12.192" height="2.494" fill="#1428a0"/>
                    </g>
                </g>
                <rect id="Rectangle_12174" data-name="Rectangle 12174" width="2.728" height="2.03" transform="translate(49.635 12.232)" fill="#1428a0"/>
                <rect id="Rectangle_12175" data-name="Rectangle 12175" width="14.222" height="2.286" transform="translate(43.893 0.641)" fill="#1428a0"/>
                <rect id="Rectangle_12176" data-name="Rectangle 12176" width="14.222" height="2.286" transform="translate(43.893 6.434)" fill="#1428a0"/>
                <rect id="Rectangle_12177" data-name="Rectangle 12177" width="14.222" height="2.282" transform="translate(43.893 13.8)" fill="#1428a0"/>
                <rect id="Rectangle_12178" data-name="Rectangle 12178" width="14.222" height="2.284" transform="translate(43.893 17.269)" fill="#1428a0"/>
                <rect id="Rectangle_12179" data-name="Rectangle 12179" width="14.222" height="2.284" transform="translate(43.893 21.083)" fill="#1428a0"/>
                <rect id="Rectangle_12180" data-name="Rectangle 12180" width="2.854" height="4.751" transform="translate(55.26 14.795)" fill="#1428a0"/>
                <rect id="Rectangle_12181" data-name="Rectangle 12181" width="2.854" height="4.755" transform="translate(55.26 2.602)" fill="#1428a0"/>
                <rect id="Rectangle_12182" data-name="Rectangle 12182" width="2.856" height="4.748" transform="translate(43.893 17.849)" fill="#1428a0"/>
                <rect id="Rectangle_12183" data-name="Rectangle 12183" width="2.856" height="4.753" transform="translate(43.893 2.243)" fill="#1428a0"/>
            </g>
        </g>
        <g id="Group_3933" data-name="Group 3933" transform="translate(176.529 385.43)">
            <path id="Path_4502" data-name="Path 4502" d="M306.122,395.681c1.764,10.124-25.8,23.381-61.565,29.608s-66.185,3.071-67.948-7.055,25.8-23.381,61.564-29.61S304.36,385.556,306.122,395.681Z" transform="translate(-176.529 -385.43)" fill="#1428a0"/>
            <path id="Path_4503" data-name="Path 4503" d="M208.672,415.821a1.783,1.783,0,0,1,.027.993,1.161,1.161,0,0,1-1.307.9,1.2,1.2,0,0,1-1.349-1.215l0-1.3h-3.594l0,1.033c0,2.991,2.353,3.894,4.873,3.894,2.425,0,4.421-.827,4.739-3.065a6.549,6.549,0,0,0-.014-2.2c-.564-2.808-5.654-3.645-6.032-5.215a1.723,1.723,0,0,1-.015-.7,1.108,1.108,0,0,1,1.225-.9,1.142,1.142,0,0,1,1.246,1.215v.829h3.347v-.945c0-2.919-2.624-3.376-4.522-3.376-2.382,0-4.332.788-4.688,2.977a4.609,4.609,0,0,0,.032,1.807C203.215,413.293,207.979,414.085,208.672,415.821Z" transform="translate(-184.184 -391.438)" fill="#fff"/>
            <path id="Path_4504" data-name="Path 4504" d="M270.562,415.825a1.733,1.733,0,0,1,.026.982,1.145,1.145,0,0,1-1.293.891,1.186,1.186,0,0,1-1.335-1.2l0-1.287H264.4l0,1.023c0,2.961,2.332,3.856,4.825,3.856,2.4,0,4.376-.819,4.692-3.035a6.426,6.426,0,0,0-.016-2.177c-.559-2.779-5.6-3.608-5.971-5.162a1.687,1.687,0,0,1-.015-.7,1.1,1.1,0,0,1,1.213-.891,1.129,1.129,0,0,1,1.232,1.2v.821h3.314v-.935c0-2.89-2.6-3.343-4.476-3.343-2.359,0-4.288.782-4.641,2.947a4.557,4.557,0,0,0,.032,1.791C265.162,413.322,269.879,414.107,270.562,415.825Z" transform="translate(-202.484 -391.469)" fill="#fff"/>
            <path id="Path_4505" data-name="Path 4505" d="M309.215,417.164l-.188-10.795h3.321v13.266h-4.775l-3.387-11.14.188,11.14h-3.3V406.369h4.978Z" transform="translate(-213.319 -391.615)" fill="#fff"/>
            <path id="Path_4506" data-name="Path 4506" d="M224.792,407.365l-1.87,12.408H219.3l2.484-13.4h5.964l2.471,13.4h-3.6Z" transform="translate(-189.163 -391.615)" fill="#fff"/>
            <path id="Path_4507" data-name="Path 4507" d="M250.054,407.365l-2.307,12.408h-3.4l-2.308-12.408-.088,12.408h-3.356l.3-13.4h5.466l1.69,10.48h0l1.692-10.48H253.2l.294,13.4h-3.353Z" transform="translate(-194.862 -391.615)" fill="#fff"/>
            <path id="Path_4508" data-name="Path 4508" d="M287.146,417.773a1.206,1.206,0,0,0,1.286-.972,2.737,2.737,0,0,0,.033-.512v-9.92h3.391v9.615c0,.246-.02.75-.032.881-.235,2.5-2.212,3.313-4.678,3.313s-4.443-.812-4.677-3.313c-.013-.131-.038-.636-.033-.881V406.37h3.392v9.92a2.8,2.8,0,0,0,.032.512A1.206,1.206,0,0,0,287.146,417.773Z" transform="translate(-207.813 -391.616)" fill="#fff"/>
            <path id="Path_4509" data-name="Path 4509" d="M326.82,417.483a1.256,1.256,0,0,0,1.371-.974,2.956,2.956,0,0,0,.032-.509v-1.945h-1.374V412.1H331.6v3.594c0,.252-.008.436-.048.884-.223,2.439-2.338,3.311-4.715,3.311s-4.494-.872-4.716-3.311a8.589,8.589,0,0,1-.048-.884v-5.641c0-.239.03-.659.057-.884.3-2.506,2.328-3.312,4.706-3.312s4.46.8,4.708,3.312c.04.428.027.884.029.884v.447h-3.381v-.752a3.22,3.22,0,0,0-.044-.512,1.22,1.22,0,0,0-1.338-.972,1.238,1.238,0,0,0-1.335.972,3.118,3.118,0,0,0-.056.636V416a3.027,3.027,0,0,0,.033.509A1.255,1.255,0,0,0,326.82,417.483Z" transform="translate(-219.521 -391.464)" fill="#fff"/>
        </g>
    </g>
</svg>
